<svg width="40" height="40" viewBox="0 0 40 40" fill="none" xmlns="http://www.w3.org/2000/svg">
<path d="M20 15.8328C19.1759 15.8331 18.3703 16.0778 17.6853 16.5359C17.0002 16.994 16.4663 17.6449 16.1511 18.4064C15.836 19.1679 15.7537 20.0057 15.9146 20.8139C16.0756 21.6222 16.4726 22.3646 17.0555 22.9472C17.6383 23.5298 18.3808 23.9266 19.1892 24.0872C19.9975 24.2479 20.8353 24.1653 21.5966 23.8498C22.358 23.5344 23.0087 23.0003 23.4666 22.315C23.9244 21.6297 24.1687 20.8241 24.1687 20C24.1679 18.8948 23.7284 17.8351 22.9467 17.0537C22.1651 16.2724 21.1052 15.8332 20 15.8328ZM29.743 12.6297C29.5308 12.0921 29.2105 11.6038 28.8018 11.1951C28.3931 10.7864 27.9048 10.466 27.3672 10.2539C25.7266 9.60625 21.8203 9.75156 20 9.75156C18.1797 9.75156 14.2773 9.60078 12.632 10.2539C12.0944 10.466 11.6061 10.7864 11.1974 11.1951C10.7887 11.6038 10.4684 12.0921 10.2562 12.6297C9.60938 14.2703 9.75391 18.1805 9.75391 19.9992C9.75391 21.818 9.60938 25.7234 10.2594 27.3695C10.4715 27.9072 10.7919 28.3955 11.2006 28.8041C11.6092 29.2128 12.0975 29.5332 12.6352 29.7453C14.2758 30.393 18.182 30.2477 20.0031 30.2477C21.8242 30.2477 25.725 30.3984 27.3703 29.7453C27.9079 29.5332 28.3962 29.2128 28.8049 28.8041C29.2136 28.3955 29.534 27.9072 29.7461 27.3695C30.3984 25.7289 30.2484 21.8188 30.2484 20C30.2484 18.1812 30.3984 14.2766 29.7461 12.6305L29.743 12.6297ZM20 26.4062C18.733 26.4062 17.4944 26.0305 16.4409 25.3266C15.3874 24.6227 14.5663 23.6222 14.0814 22.4516C13.5965 21.281 13.4697 19.9929 13.7168 18.7502C13.964 17.5075 14.5742 16.366 15.4701 15.4701C16.366 14.5742 17.5075 13.964 18.7502 13.7168C19.9929 13.4697 21.281 13.5965 22.4516 14.0814C23.6222 14.5663 24.6227 15.3874 25.3266 16.4409C26.0305 17.4944 26.4062 18.733 26.4062 20C26.4073 20.8416 26.2423 21.6751 25.9207 22.4528C25.5991 23.2305 25.1273 23.9371 24.5322 24.5322C23.9371 25.1273 23.2305 25.5991 22.4528 25.9207C21.6751 26.2423 20.8416 26.4073 20 26.4062ZM26.6703 14.8203C26.3745 14.8205 26.0854 14.7329 25.8393 14.5687C25.5933 14.4045 25.4016 14.171 25.2883 13.8978C25.175 13.6246 25.1452 13.3239 25.2029 13.0338C25.2605 12.7436 25.4028 12.4771 25.6119 12.2679C25.821 12.0587 26.0874 11.9162 26.3775 11.8585C26.6676 11.8007 26.9683 11.8303 27.2416 11.9434C27.5149 12.0566 27.7484 12.2482 27.9128 12.4942C28.0771 12.7401 28.1648 13.0292 28.1648 13.325C28.1657 13.5214 28.1277 13.7161 28.0531 13.8978C27.9786 14.0795 27.8688 14.2447 27.7303 14.3839C27.5917 14.5231 27.427 14.6336 27.2457 14.709C27.0643 14.7845 26.8699 14.8233 26.6734 14.8234L26.6703 14.8203ZM33.75 2.5H6.25C5.25544 2.5 4.30161 2.89509 3.59835 3.59835C2.89509 4.30161 2.5 5.25544 2.5 6.25L2.5 33.75C2.5 34.7446 2.89509 35.6984 3.59835 36.4016C4.30161 37.1049 5.25544 37.5 6.25 37.5H33.75C34.7446 37.5 35.6984 37.1049 36.4016 36.4016C37.1049 35.6984 37.5 34.7446 37.5 33.75V6.25C37.5 5.25544 37.1049 4.30161 36.4016 3.59835C35.6984 2.89509 34.7446 2.5 33.75 2.5ZM32.4125 25.1562C32.3117 27.1586 31.8547 28.9328 30.393 30.3906C28.9312 31.8484 27.1586 32.3148 25.1586 32.4102C23.0953 32.5266 16.9094 32.5266 14.8461 32.4102C12.8438 32.3094 11.0758 31.8516 9.61172 30.3906C8.14766 28.9297 7.6875 27.1547 7.59219 25.1562C7.47578 23.0922 7.47578 16.9055 7.59219 14.8438C7.69297 12.8414 8.14453 11.0672 9.61172 9.60938C11.0789 8.15156 12.8516 7.69063 14.8461 7.59531C16.9094 7.47891 23.0953 7.47891 25.1586 7.59531C27.1609 7.69609 28.9344 8.15391 30.393 9.61484C31.8516 11.0758 32.3172 12.8508 32.4125 14.8531C32.5289 16.9094 32.5289 23.0906 32.4125 25.1562Z" fill="#F2F2F2"/>
</svg>
