<svg width="81" height="68" viewBox="0 0 81 68" fill="none" xmlns="http://www.w3.org/2000/svg">
<path d="M80.2834 51.5472C78.6944 53.6982 74.8273 55.2281 74.8273 55.2281L45.9864 66.3767V58.1516L67.2058 50.0022C69.6104 49.0782 69.9901 47.7603 68.0214 47.0635C66.0668 46.3667 62.5232 46.5637 60.1186 47.5028L45.9864 52.8802V44.337C49.2488 43.1555 52.6096 42.2769 56.6313 41.7922C62.3826 41.1105 69.4135 41.8831 74.9398 44.14C81.1552 46.2607 81.8583 49.3963 80.2834 51.5472ZM48.7285 37.5357V16.4806C48.7285 14.0115 48.3066 11.7394 46.1552 11.088C44.5099 10.5124 43.4834 12.1635 43.4834 14.6326V67.331L30.2934 62.817V0C35.9041 1.12092 44.074 3.77175 48.4613 5.36224C59.6405 9.49753 63.4232 14.6477 63.4232 26.2356C63.4232 37.5206 56.9547 41.8073 48.7285 37.5357ZM6.07884 57.2882C-0.305253 55.3493 -1.37396 51.3049 1.53685 48.9873C4.22267 46.8363 8.80684 45.2155 8.80684 45.2155L27.7201 37.975V46.2304L14.1082 51.4715C11.7036 52.3955 11.338 53.7133 13.2926 54.4101C15.2472 55.1069 18.7908 54.91 21.1954 53.9708L27.7201 51.4109V58.8029C20.4641 60.2116 13.4613 59.9087 6.07884 57.2882Z" fill="#F2F2F2"/>
</svg>
